<svg width="48" height="48" viewBox="0 0 48 48" fill="none" xmlns="http://www.w3.org/2000/svg">
<rect width="48" height="48" fill="#323238"/>
<path d="M34.5 11.125H12.5C12.1353 11.125 11.7856 11.2699 11.5277 11.5277C11.2699 11.7856 11.125 12.1353 11.125 12.5V34.5C11.125 34.8647 11.2699 35.2144 11.5277 35.4723C11.7856 35.7301 12.1353 35.875 12.5 35.875H34.5C34.8647 35.875 35.2144 35.7301 35.4723 35.4723C35.7301 35.2144 35.875 34.8647 35.875 34.5V12.5C35.875 12.1353 35.7301 11.7856 35.4723 11.5277C35.2144 11.2699 34.8647 11.125 34.5 11.125V11.125ZM18.4661 32.2134H14.7921V20.4021H18.4661V32.2134ZM16.6291 18.7893C16.0646 18.7893 15.5232 18.565 15.124 18.1658C14.7249 17.7667 14.5006 17.2253 14.5006 16.6608C14.5006 16.0962 14.7249 15.5548 15.124 15.1557C15.5232 14.7565 16.0646 14.5323 16.6291 14.5323C17.1936 14.5323 17.735 14.7565 18.1342 15.1557C18.5334 15.5548 18.7576 16.0962 18.7576 16.6608C18.7576 17.2253 18.5334 17.7667 18.1342 18.1658C17.735 18.565 17.1936 18.7893 16.6291 18.7893V18.7893ZM32.2147 32.2134H28.5449V26.47C28.5449 25.1005 28.5201 23.3391 26.6364 23.3391C24.7251 23.3391 24.435 24.8324 24.435 26.3738V32.2147H20.7679V20.4035H24.2879V22.0177H24.3387C24.8269 21.0896 26.0259 20.1106 27.8092 20.1106C31.5272 20.1106 32.2134 22.5554 32.2134 25.7371V32.2134H32.2147Z" fill="white"/>
</svg>
